PathFileType	4	(X/Y/Z)	C:\Users\Basilio\Documents\Thesis Gigler\squatting_fais\c3dfiles\073\SJ_pre5\markers_experimental.trc
DataRate	CameraRate	NumFrames	NumMarkers	Units	OrigDataRate	OrigDataStartFrame	OrigNumFrames
200.000000	200.000000	4	61	mm	200.000000	340	1360
Frame#	Time	FHD			LBHD			RBHD			C7			T10			CLAV			LSHO			LUUPA			LMUPA			LDUPA			LLEP			LMEP			LRAD			LUL			LRFIN			RSHO			RUPA1			RMUPA			RDUPA			RLEP			RMEP			RRAD			RUL			RUFIN			LASI			RASI			USACR			LSACR			RSACR			LTHI1			LTHI2			LTHI3			LTHI4			LLFC			LMFC			LTIB1			LTIB2			LTIB3			LTIB4			LLMAL			LMMAL			LHEE			LMT1			LMT2			LMT5			RTHI			RTHI2			RTHI3			RTHI4			RLFC			RMFC			RTIB1			RTIB2			RTIB3			RTIB4			RLMAL			RMMAL			RHEE			RMT1			RMT2			RMT5			
		X1	Y1	Z1	X2	Y2	Z2	X3	Y3	Z3	X4	Y4	Z4	X5	Y5	Z5	X6	Y6	Z6	X7	Y7	Z7	X8	Y8	Z8	X9	Y9	Z9	X10	Y10	Z10	X11	Y11	Z11	X12	Y12	Z12	X13	Y13	Z13	X14	Y14	Z14	X15	Y15	Z15	X16	Y16	Z16	X17	Y17	Z17	X18	Y18	Z18	X19	Y19	Z19	X20	Y20	Z20	X21	Y21	Z21	X22	Y22	Z22	X23	Y23	Z23	X24	Y24	Z24	X25	Y25	Z25	X26	Y26	Z26	X27	Y27	Z27	X28	Y28	Z28	X29	Y29	Z29	X30	Y30	Z30	X31	Y31	Z31	X32	Y32	Z32	X33	Y33	Z33	X34	Y34	Z34	X35	Y35	Z35	X36	Y36	Z36	X37	Y37	Z37	X38	Y38	Z38	X39	Y39	Z39	X40	Y40	Z40	X41	Y41	Z41	X42	Y42	Z42	X43	Y43	Z43	X44	Y44	Z44	X45	Y45	Z45	X46	Y46	Z46	X47	Y47	Z47	X48	Y48	Z48	X49	Y49	Z49	X50	Y50	Z50	X51	Y51	Z51	X52	Y52	Z52	X53	Y53	Z53	X54	Y54	Z54	X55	Y55	Z55	X56	Y56	Z56	X57	Y57	Z57	X58	Y58	Z58	X59	Y59	Z59	X60	Y60	Z60	X61	Y61	Z61	

341	1.7	66.64025878906251	1057.615234375	-980.5274658203127	-71.1130828857422	1043.620483398438	-1000.360473632813	-93.05760192871095	1033.504760742188	-866.7766723632815	-125.6159439086914	991.4133300781252	-930.6315917968752	-420.4801025390626	841.0508422851565	-928.3656005859377	-93.28805541992189	838.8941650390627	-929.837097167969	-87.36342620849611	866.695983886719	-1094.73974609375	-165.6549682617188	859.7190551757815	-1225.7158203125	-191.4849548339844	817.2254638671877	-1232.364624023438	-205.8474426269532	849.373474121094	-1282.130249023438	-289.1949157714844	817.9942626953127	-1347.28369140625	-342.9961242675782	883.7192382812502	-1338.076782226563	-464.6906738281251	713.7076416015626	-1168.547241210938	-434.7020263671876	653.9739379882814	-1201.775512695313	-448.3931579589845	701.2614135742189	-1105.52734375	-85.90710449218751	857.6416625976565	-765.2882080078126	-181.411117553711	876.090270996094	-620.7202758789064	-210.8908233642579	837.523376464844	-610.4354858398439	-230.9205932617188	878.9492187500002	-571.2133178710939	-309.0137634277344	854.1155395507815	-519.1839599609376	-365.3244018554688	916.8585205078127	-563.8499755859376	-494.0227050781251	732.5588989257814	-677.5564575195314	-464.8652343750001	673.4250488281251	-639.6535644531251	-455.2568969726564	709.4824829101564	-735.5010375976564	-420.0976562500001	648.7208251953126	-1048.335205078125	-425.3633117675782	626.7409057617189	-808.385925292969	-533.6841430664064	778.6383056640627	-919.1928710937502	-560.4812011718751	765.0252075195314	-947.2875976562502	-564.4937133789064	763.5109252929689	-891.032897949219	-345.3509216308594	537.2619018554689	-1178.607421875	-259.4967956542969	535.3898315429689	-1188.212036132813	-236.3811492919922	568.7431030273439	-1159.518798828125	-226.662338256836	483.0812988281251	-1190.158081054688	-189.9430236816407	445.8119506835939	-1197.619262695313	-167.3001861572266	430.1233825683595	-1073.195678710938	-203.5031433105469	256.2803344726563	-1160.74365234375	-279.2561645507813	254.352279663086	-1209.033203125	-248.3825378417969	229.2570190429688	-1189.721435546875	-285.2647705078126	160.7180938720703	-1156.480834960938	-398.101287841797	86.42812347412111	-1183.281860351563	-376.2671508789063	103.0163650512696	-1096.398193359375	-461.0609130859376	53.51244354248048	-1139.967407226563	-231.8850097656251	53.71630859375001	-1130.624389648438	-236.2403564453126	54.07819747924806	-1168.642822265625	-275.6924133300782	35.29978179931641	-1220.765747070313	-427.2269897460939	550.5212402343751	-686.2308349609376	-362.0559997558594	553.3222656250001	-675.8256835937501	-344.5894470214844	580.7491455078126	-684.0023193359376	-308.7372131347657	490.1557617187501	-667.1701049804689	-188.6690216064453	424.2853088378907	-657.9130859375001	-164.094482421875	405.8880004882814	-776.659362792969	-205.4130554199219	266.3013305664063	-735.3896484375001	-273.9692382812501	214.9262390136719	-668.2385253906251	-253.6357574462891	199.6563873291016	-708.9395141601564	-290.6893920898438	169.2700500488282	-740.8203125000001	-401.1139526367189	83.85592651367189	-684.6674194335939	-381.9759521484376	97.03356933593753	-772.816589355469	-473.4508666992189	46.23345947265626	-741.2920532226564	-244.2083587646485	54.96449279785158	-712.5041503906251	-251.5160217285157	55.6263999938965	-672.5983276367189	-298.9264221191407	34.57535934448243	-629.7259521484376	
342	1.705	67.61429595947267	1055.341430664063	-980.6259765625002	-70.32271575927736	1041.397827148438	-1000.305603027344	-92.37603759765626	1031.301025390625	-866.647399902344	-124.9573745727539	989.4238281250002	-930.617614746094	-419.9688720703126	839.5800781250002	-928.429626464844	-92.7958221435547	836.663024902344	-929.7996826171877	-87.0373001098633	864.7310791015627	-1094.69482421875	-165.2127380371094	857.7308349609377	-1225.7421875	-191.343246459961	815.296325683594	-1232.161743164063	-205.3260498046876	847.3477172851565	-1281.992065429688	-288.9201660156251	816.3989868164065	-1346.946655273438	-342.4481506347657	882.1272583007815	-1338.10498046875	-464.5187377929689	712.4915771484376	-1168.589477539063	-434.8732910156251	652.7195434570314	-1201.573852539063	-448.1769104003907	700.0465698242189	-1105.504638671875	-85.41665649414064	855.4523925781252	-765.3050537109376	-180.8306732177735	874.1135864257815	-620.7720336914064	-210.3351287841797	835.5161132812502	-610.4228515625001	-230.2622833251954	877.0831298828127	-571.2615966796876	-308.4197998046876	852.3880004882815	-519.1900634765626	-364.5410461425782	915.4020996093752	-563.7742919921876	-493.8080444335939	731.5242309570314	-677.5681762695314	-464.8509826660157	672.2359619140626	-639.6956787109376	-455.2105407714845	708.4468994140626	-735.5566406250001	-419.7640380859376	647.2877807617189	-1048.108642578125	-425.0251770019532	625.7091674804689	-808.116638183594	-533.4285278320314	777.3738403320315	-919.212341308594	-560.1713867187501	763.7271118164064	-947.188659667969	-564.2102661132814	762.2890014648439	-891.0343017578127	-345.1046752929688	536.4990844726564	-1178.394897460938	-259.2791137695313	534.8845825195314	-1188.044555664063	-236.3461303710938	568.3536987304689	-1159.398681640625	-226.3589019775391	482.787567138672	-1190.049072265625	-189.5294036865235	445.519744873047	-1197.523193359375	-166.8415069580078	429.8878784179689	-1072.934692382813	-203.2705230712891	256.0929565429688	-1160.614013671875	-279.0478210449219	254.2781677246094	-1208.910522460938	-248.1609649658204	229.1112213134766	-1189.556030273438	-285.1887817382813	160.5951690673828	-1156.334106445313	-398.0584106445314	86.47541809082033	-1183.17919921875	-376.2309265136719	103.0291290283203	-1096.3193359375	-461.0166931152345	53.50759124755861	-1139.9169921875	-231.8686676025391	53.72522354125978	-1130.610229492188	-236.1762390136719	54.10183334350587	-1168.607055664063	-275.5167541503907	35.65481567382813	-1220.69287109375	-427.0481872558595	549.7327880859376	-686.1550292968751	-361.8610839843751	552.6902465820314	-675.8256225585939	-344.4503173828126	580.0679931640626	-683.9714965820314	-308.4942016601563	489.630828857422	-667.1293945312501	-188.1906890869141	423.915985107422	-657.8641967773439	-163.8903350830078	405.508758544922	-776.6254882812502	-205.0932769775391	266.0185852050782	-735.3422851562501	-273.7142639160157	214.7095336914063	-668.2646484375001	-253.4295196533204	199.4873657226563	-709.0250244140626	-290.5150451660157	169.134262084961	-740.8145141601564	-401.0333862304689	83.87203216552736	-684.7342529296876	-381.8854675292969	97.04203033447268	-772.8838500976565	-473.417694091797	46.23398590087891	-741.2985839843751	-244.2197418212891	54.95866775512697	-712.4945068359376	-251.5183563232422	55.64607620239259	-672.5883178710939	-298.9192199707032	34.60237503051759	-629.7672119140626	
343	1.71	68.06001281738283	1053.009399414063	-980.3994750976565	-69.70652008056642	1039.263427734375	-1000.180236816406	-91.83486938476564	1029.230102539063	-866.759948730469	-124.2888336181641	987.3720703125002	-930.5710449218752	-419.4945068359376	838.134948730469	-928.466247558594	-92.29055023193361	834.484802246094	-929.713073730469	-86.31713867187501	862.3901977539065	-1094.633422851563	-164.5726318359375	855.8386230468752	-1225.746337890625	-190.7801666259766	813.3527832031252	-1232.181274414063	-204.9253234863282	845.4275512695315	-1281.923095703125	-288.4910888671876	814.5962524414065	-1347.037231445313	-341.8931579589844	880.614440917969	-1337.962524414063	-464.622039794922	711.3962402343751	-1168.581787109375	-434.9270935058595	651.2189941406251	-1201.578125	-448.4107055664064	699.1265258789064	-1105.55419921875	-84.88087463378908	853.3394775390627	-765.2053833007814	-180.151840209961	872.106140136719	-620.7479858398439	-209.7759094238282	833.616638183594	-610.3937988281251	-229.5767364501954	875.2656250000002	-571.2310791015626	-307.8092956542969	850.7756347656252	-519.0975341796876	-363.7207031250001	913.844421386719	-563.6476440429689	-493.6616821289064	730.3796386718751	-677.5233154296876	-464.7697143554689	671.1434936523439	-639.7543945312501	-455.1181030273439	707.3657226562501	-735.5399169921876	-419.8570861816407	646.3135986328126	-1048.683837890625	-424.5993957519532	624.2253417968751	-808.7211914062502	-533.2330932617189	776.1436157226565	-919.181335449219	-560.0708007812501	762.5408325195314	-947.266052246094	-563.9099731445314	761.0203247070314	-891.069030761719	-344.9981994628907	535.8562622070314	-1178.338623046875	-259.0223083496094	534.3790893554689	-1187.950439453125	-236.3154602050782	567.8666992187501	-1159.1943359375	-226.0623474121094	482.4016418457032	-1189.860473632813	-189.2140808105469	445.291961669922	-1197.4453125	-166.5832214355469	429.5115661621095	-1072.899047851563	-203.0227813720704	255.9156951904297	-1160.46630859375	-278.8243103027344	254.1991119384766	-1208.806518554688	-247.8328857421876	228.9806823730469	-1189.336669921875	-285.0337524414063	160.5012969970703	-1156.194213867188	-397.9948120117189	86.51785278320314	-1183.154907226563	-376.1762084960938	103.0134429931641	-1096.212890625	-461.0164184570314	53.54090881347658	-1139.88525390625	-231.8559112548829	53.72727966308595	-1130.593139648438	-236.2513275146485	53.96231079101564	-1168.58544921875	-275.5004882812501	35.63872528076173	-1220.620727539063	-426.8804626464845	548.9412231445314	-686.1725463867189	-361.6634521484376	551.9879760742189	-675.8136596679689	-344.2748107910157	579.4571533203126	-684.0073852539064	-308.1492919921876	489.0528259277345	-667.0491333007814	-187.745590209961	423.5958251953126	-657.8436889648439	-163.6240997314453	405.0816955566407	-776.5728759765627	-204.6969909667969	265.7299804687501	-735.2775268554689	-273.4384460449219	214.5097198486329	-668.3129882812501	-253.3208160400391	199.2134246826172	-709.1361694335939	-290.4401855468751	168.9735870361328	-740.8619995117189	-401.0117492675782	83.85697174072267	-684.7692871093751	-381.8937072753907	97.01452636718753	-772.9245605468752	-473.3707275390626	46.25008773803712	-741.3448486328126	-244.2153625488282	54.98344039916994	-712.5259399414064	-251.5234985351563	55.66876602172853	-672.5935668945314	-298.9080505371094	34.58741760253907	-629.7747802734376	
344	1.715	69.30782318115236	1050.916381835938	-980.441589355469	-68.81864166259767	1037.219482421875	-1000.153564453125	-91.14437103271486	1027.09326171875	-866.6268310546877	-123.6319732666016	985.3297119140627	-930.4771728515627	-419.132049560547	836.754577636719	-928.501892089844	-91.81118011474611	832.488464355469	-929.7894287109377	-85.9464569091797	860.4170532226565	-1094.543334960938	-164.1747741699219	853.922546386719	-1225.583251953125	-190.458236694336	811.4166259765627	-1231.9453125	-204.3597869873047	843.6867675781252	-1281.840454101563	-288.0095825195313	813.0455322265627	-1346.914916992188	-341.3943481445313	879.0925903320315	-1337.95263671875	-464.5718688964845	710.1508789062501	-1168.57373046875	-435.0518493652345	650.1089477539064	-1201.40087890625	-448.6534729003907	698.0095825195314	-1105.515502929688	-84.41053771972658	851.2772216796877	-765.2228393554689	-179.6177825927735	870.2370605468752	-620.7599487304689	-209.2509155273438	831.8476562500002	-610.4263305664064	-228.9635620117188	873.467224121094	-571.2474365234376	-307.2320251464844	849.1045532226565	-519.1033325195314	-363.0050659179688	912.459167480469	-563.5737304687501	-493.4748840332032	729.4409790039064	-677.5336303710939	-464.7283020019532	669.9888305664064	-639.7963256835939	-454.9285888671876	706.3927001953126	-735.5638427734376	-419.696502685547	644.8682250976564	-1048.457885742188	-424.7689208984376	622.9154663085939	-808.4832763671877	-532.9341430664064	775.0247192382815	-919.2214965820315	-559.7446899414064	761.4777832031251	-947.1955566406252	-563.7238159179689	759.9565429687501	-891.064147949219	-345.0057067871094	535.1978149414064	-1178.29052734375	-258.9300537109376	533.9118652343751	-1187.78125	-236.2401885986329	567.4343261718751	-1159.005615234375	-225.8291168212891	481.9727478027345	-1189.748413085938	-188.8891296386719	444.9950561523439	-1197.343994140625	-166.2825317382813	429.2378234863282	-1072.79931640625	-202.8299713134766	255.6821899414063	-1160.244384765625	-278.6034240722657	254.1048126220704	-1208.697875976563	-247.6219329833985	228.8674774169922	-1189.286743164063	-284.8861083984376	160.3715362548828	-1156.091674804688	-397.932342529297	86.52165985107423	-1183.075439453125	-376.2501525878907	103.0987701416016	-1096.096923828125	-460.9895019531251	53.60675430297853	-1139.831420898438	-231.7630157470704	53.74735641479494	-1130.579345703125	-236.1845397949219	54.02695083618165	-1168.59814453125	-275.5382080078126	35.66664505004884	-1220.566040039063	-426.7226562500001	548.1162719726564	-686.1355590820314	-361.4920959472657	551.2316284179689	-675.8110351562501	-344.0995178222657	578.8558959960939	-684.0372924804689	-307.8265991210938	488.449432373047	-666.9898071289064	-187.3181762695313	423.267059326172	-657.8633422851564	-163.2518768310547	404.6678771972657	-776.443298339844	-204.3053283691407	265.4497985839844	-735.3494873046876	-273.1787414550782	214.3300170898438	-668.3623046875001	-252.9396362304688	199.0600280761719	-709.0277099609376	-290.0725402832032	168.7886505126953	-740.8549194335939	-400.9590148925782	83.88142395019533	-684.8066406250001	-381.9075622558594	97.04609680175784	-772.9622192382815	-473.3785705566407	46.27983474731446	-741.3923950195314	-244.1417694091797	54.94557952880861	-712.5394897460939	-251.4701538085938	55.64522933959962	-672.6707763671876	-298.9326171875001	34.61133193969727	-629.7656250000001	
